<svg width="177" height="21" viewBox="0 0 177 21" fill="none" xmlns="http://www.w3.org/2000/svg">
<path d="M5.2 15.14C4.22667 15.14 3.34667 14.9733 2.56 14.64C1.78667 14.3067 1.17333 13.8267 0.72 13.2C0.266667 12.5733 0.0333334 11.8333 0.0200001 10.98H3.02C3.06 11.5533 3.26 12.0067 3.62 12.34C3.99333 12.6733 4.5 12.84 5.14 12.84C5.79333 12.84 6.30667 12.6867 6.68 12.38C7.05333 12.06 7.24 11.6467 7.24 11.14C7.24 10.7267 7.11333 10.3867 6.86 10.12C6.60667 9.85333 6.28667 9.64667 5.9 9.5C5.52667 9.34 5.00667 9.16667 4.34 8.98C3.43333 8.71333 2.69333 8.45333 2.12 8.2C1.56 7.93333 1.07333 7.54 0.66 7.02C0.26 6.48667 0.0600001 5.78 0.0600001 4.9C0.0600001 4.07333 0.266667 3.35333 0.68 2.74C1.09333 2.12667 1.67333 1.66 2.42 1.34C3.16667 1.00667 4.02 0.84 4.98 0.84C6.42 0.84 7.58667 1.19333 8.48 1.9C9.38667 2.59333 9.88667 3.56667 9.98 4.82H6.9C6.87333 4.34 6.66667 3.94667 6.28 3.64C5.90667 3.32 5.40667 3.16 4.78 3.16C4.23333 3.16 3.79333 3.3 3.46 3.58C3.14 3.86 2.98 4.26667 2.98 4.8C2.98 5.17333 3.1 5.48667 3.34 5.74C3.59333 5.98 3.9 6.18 4.26 6.34C4.63333 6.48667 5.15333 6.66 5.82 6.86C6.72667 7.12667 7.46667 7.39333 8.04 7.66C8.61333 7.92667 9.10667 8.32667 9.52 8.86C9.93333 9.39333 10.14 10.0933 10.14 10.96C10.14 11.7067 9.94667 12.4 9.56 13.04C9.17333 13.68 8.60667 14.1933 7.86 14.58C7.11333 14.9533 6.22667 15.14 5.2 15.14ZM17.4475 1.04C18.9142 1.04 20.2008 1.32667 21.3075 1.9C22.4275 2.47333 23.2875 3.29333 23.8875 4.36C24.5008 5.41333 24.8075 6.64 24.8075 8.04C24.8075 9.44 24.5008 10.6667 23.8875 11.72C23.2875 12.76 22.4275 13.5667 21.3075 14.14C20.2008 14.7133 18.9142 15 17.4475 15H12.5675V1.04H17.4475ZM17.3475 12.62C18.8142 12.62 19.9475 12.22 20.7475 11.42C21.5475 10.62 21.9475 9.49333 21.9475 8.04C21.9475 6.58667 21.5475 5.45333 20.7475 4.64C19.9475 3.81333 18.8142 3.4 17.3475 3.4H15.3675V12.62H17.3475ZM34.4691 1.04V15H31.6691V1.04H34.4691ZM41.4755 15.18C40.5688 15.18 39.7555 15.02 39.0355 14.7C38.3155 14.3667 37.7421 13.92 37.3155 13.36C36.9021 12.8 36.6755 12.18 36.6355 11.5H39.4555C39.5088 11.9267 39.7155 12.28 40.0755 12.56C40.4488 12.84 40.9088 12.98 41.4555 12.98C41.9888 12.98 42.4021 12.8733 42.6955 12.66C43.0021 12.4467 43.1555 12.1733 43.1555 11.84C43.1555 11.48 42.9688 11.2133 42.5955 11.04C42.2355 10.8533 41.6555 10.6533 40.8555 10.44C40.0288 10.24 39.3488 10.0333 38.8155 9.82C38.2955 9.60667 37.8421 9.28 37.4555 8.84C37.0821 8.4 36.8955 7.80667 36.8955 7.06C36.8955 6.44667 37.0688 5.88667 37.4155 5.38C37.7755 4.87333 38.2821 4.47333 38.9355 4.18C39.6021 3.88667 40.3821 3.74 41.2755 3.74C42.5955 3.74 43.6488 4.07333 44.4355 4.74C45.2221 5.39333 45.6555 6.28 45.7355 7.4H43.0555C43.0155 6.96 42.8288 6.61333 42.4955 6.36C42.1755 6.09333 41.7421 5.96 41.1955 5.96C40.6888 5.96 40.2955 6.05333 40.0155 6.24C39.7488 6.42667 39.6155 6.68667 39.6155 7.02C39.6155 7.39333 39.8021 7.68 40.1755 7.88C40.5488 8.06667 41.1288 8.26 41.9155 8.46C42.7155 8.66 43.3755 8.86667 43.8955 9.08C44.4155 9.29333 44.8621 9.62667 45.2355 10.08C45.6221 10.52 45.8221 11.1067 45.8355 11.84C45.8355 12.48 45.6555 13.0533 45.2955 13.56C44.9488 14.0667 44.4421 14.4667 43.7755 14.76C43.1221 15.04 42.3555 15.18 41.4755 15.18ZM50.9339 0.2V15H48.1339V0.2H50.9339ZM52.9803 9.42C52.9803 8.3 53.2003 7.30667 53.6403 6.44C54.0936 5.57333 54.7003 4.90667 55.4603 4.44C56.2336 3.97333 57.0936 3.74 58.0403 3.74C58.867 3.74 59.587 3.90667 60.2003 4.24C60.827 4.57333 61.327 4.99333 61.7003 5.5V3.92H64.5203V15H61.7003V13.38C61.3403 13.9 60.8403 14.3333 60.2003 14.68C59.5736 15.0133 58.847 15.18 58.0203 15.18C57.087 15.18 56.2336 14.94 55.4603 14.46C54.7003 13.98 54.0936 13.3067 53.6403 12.44C53.2003 11.56 52.9803 10.5533 52.9803 9.42ZM61.7003 9.46C61.7003 8.78 61.567 8.2 61.3003 7.72C61.0336 7.22667 60.6736 6.85333 60.2203 6.6C59.767 6.33333 59.2803 6.2 58.7603 6.2C58.2403 6.2 57.7603 6.32667 57.3203 6.58C56.8803 6.83333 56.5203 7.20667 56.2403 7.7C55.9736 8.18 55.8403 8.75333 55.8403 9.42C55.8403 10.0867 55.9736 10.6733 56.2403 11.18C56.5203 11.6733 56.8803 12.0533 57.3203 12.32C57.7736 12.5867 58.2536 12.72 58.7603 12.72C59.2803 12.72 59.767 12.5933 60.2203 12.34C60.6736 12.0733 61.0336 11.7 61.3003 11.22C61.567 10.7267 61.7003 10.14 61.7003 9.46ZM81.015 3.76C82.375 3.76 83.4683 4.18 84.295 5.02C85.135 5.84667 85.555 7.00667 85.555 8.5V15H82.755V8.88C82.755 8.01333 82.535 7.35333 82.095 6.9C81.655 6.43333 81.055 6.2 80.295 6.2C79.535 6.2 78.9283 6.43333 78.475 6.9C78.035 7.35333 77.815 8.01333 77.815 8.88V15H75.015V8.88C75.015 8.01333 74.795 7.35333 74.355 6.9C73.915 6.43333 73.315 6.2 72.555 6.2C71.7817 6.2 71.1683 6.43333 70.715 6.9C70.275 7.35333 70.055 8.01333 70.055 8.88V15H67.255V3.92H70.055V5.26C70.415 4.79333 70.875 4.42667 71.435 4.16C72.0083 3.89333 72.635 3.76 73.315 3.76C74.1817 3.76 74.955 3.94667 75.635 4.32C76.315 4.68 76.8417 5.2 77.215 5.88C77.575 5.24 78.095 4.72667 78.775 4.34C79.4683 3.95333 80.215 3.76 81.015 3.76ZM102.478 1.04V3.3H98.7577V15H95.9577V3.3H92.2377V1.04H102.478ZM114.821 9.22C114.821 9.62 114.794 9.98 114.741 10.3H106.641C106.707 11.1 106.987 11.7267 107.481 12.18C107.974 12.6333 108.581 12.86 109.301 12.86C110.341 12.86 111.081 12.4133 111.521 11.52H114.541C114.221 12.5867 113.607 13.4667 112.701 14.16C111.794 14.84 110.681 15.18 109.361 15.18C108.294 15.18 107.334 14.9467 106.481 14.48C105.641 14 104.981 13.3267 104.501 12.46C104.034 11.5933 103.801 10.5933 103.801 9.46C103.801 8.31333 104.034 7.30667 104.501 6.44C104.967 5.57333 105.621 4.90667 106.461 4.44C107.301 3.97333 108.267 3.74 109.361 3.74C110.414 3.74 111.354 3.96667 112.181 4.42C113.021 4.87333 113.667 5.52 114.121 6.36C114.587 7.18667 114.821 8.14 114.821 9.22ZM111.921 8.42C111.907 7.7 111.647 7.12667 111.141 6.7C110.634 6.26 110.014 6.04 109.281 6.04C108.587 6.04 108.001 6.25333 107.521 6.68C107.054 7.09333 106.767 7.67333 106.661 8.42H111.921ZM119.664 5.64C120.024 5.05333 120.491 4.59333 121.064 4.26C121.651 3.92667 122.318 3.76 123.064 3.76V6.7H122.324C121.444 6.7 120.778 6.90667 120.324 7.32C119.884 7.73333 119.664 8.45333 119.664 9.48V15H116.864V3.92H119.664V5.64ZM127.75 5.52C128.11 5.01333 128.604 4.59333 129.23 4.26C129.87 3.91333 130.597 3.74 131.41 3.74C132.357 3.74 133.21 3.97333 133.97 4.44C134.744 4.90667 135.35 5.57333 135.79 6.44C136.244 7.29333 136.47 8.28667 136.47 9.42C136.47 10.5533 136.244 11.56 135.79 12.44C135.35 13.3067 134.744 13.98 133.97 14.46C133.21 14.94 132.357 15.18 131.41 15.18C130.597 15.18 129.877 15.0133 129.25 14.68C128.637 14.3467 128.137 13.9267 127.75 13.42V20.28H124.95V3.92H127.75V5.52ZM133.61 9.42C133.61 8.75333 133.47 8.18 133.19 7.7C132.924 7.20667 132.564 6.83333 132.11 6.58C131.67 6.32667 131.19 6.2 130.67 6.2C130.164 6.2 129.684 6.33333 129.23 6.6C128.79 6.85333 128.43 7.22667 128.15 7.72C127.884 8.21333 127.75 8.79333 127.75 9.46C127.75 10.1267 127.884 10.7067 128.15 11.2C128.43 11.6933 128.79 12.0733 129.23 12.34C129.684 12.5933 130.164 12.72 130.67 12.72C131.19 12.72 131.67 12.5867 132.11 12.32C132.564 12.0533 132.924 11.6733 133.19 11.18C133.47 10.6867 133.61 10.1 133.61 9.42ZM137.785 9.42C137.785 8.3 138.005 7.30667 138.445 6.44C138.898 5.57333 139.505 4.90667 140.265 4.44C141.038 3.97333 141.898 3.74 142.845 3.74C143.672 3.74 144.392 3.90667 145.005 4.24C145.632 4.57333 146.132 4.99333 146.505 5.5V3.92H149.325V15H146.505V13.38C146.145 13.9 145.645 14.3333 145.005 14.68C144.378 15.0133 143.652 15.18 142.825 15.18C141.892 15.18 141.038 14.94 140.265 14.46C139.505 13.98 138.898 13.3067 138.445 12.44C138.005 11.56 137.785 10.5533 137.785 9.42ZM146.505 9.46C146.505 8.78 146.372 8.2 146.105 7.72C145.838 7.22667 145.478 6.85333 145.025 6.6C144.572 6.33333 144.085 6.2 143.565 6.2C143.045 6.2 142.565 6.32667 142.125 6.58C141.685 6.83333 141.325 7.20667 141.045 7.7C140.778 8.18 140.645 8.75333 140.645 9.42C140.645 10.0867 140.778 10.6733 141.045 11.18C141.325 11.6733 141.685 12.0533 142.125 12.32C142.578 12.5867 143.058 12.72 143.565 12.72C144.085 12.72 144.572 12.5933 145.025 12.34C145.478 12.0733 145.838 11.7 146.105 11.22C146.372 10.7267 146.505 10.14 146.505 9.46ZM151.34 9.42C151.34 8.3 151.56 7.30667 152 6.44C152.453 5.57333 153.066 4.90667 153.84 4.44C154.613 3.97333 155.473 3.74 156.42 3.74C157.14 3.74 157.826 3.9 158.48 4.22C159.133 4.52667 159.653 4.94 160.04 5.46V0.2H162.88V15H160.04V13.36C159.693 13.9067 159.206 14.3467 158.58 14.68C157.953 15.0133 157.226 15.18 156.4 15.18C155.466 15.18 154.613 14.94 153.84 14.46C153.066 13.98 152.453 13.3067 152 12.44C151.56 11.56 151.34 10.5533 151.34 9.42ZM160.06 9.46C160.06 8.78 159.926 8.2 159.66 7.72C159.393 7.22667 159.033 6.85333 158.58 6.6C158.126 6.33333 157.64 6.2 157.12 6.2C156.6 6.2 156.12 6.32667 155.68 6.58C155.24 6.83333 154.88 7.20667 154.6 7.7C154.333 8.18 154.2 8.75333 154.2 9.42C154.2 10.0867 154.333 10.6733 154.6 11.18C154.88 11.6733 155.24 12.0533 155.68 12.32C156.133 12.5867 156.613 12.72 157.12 12.72C157.64 12.72 158.126 12.5933 158.58 12.34C159.033 12.0733 159.393 11.7 159.66 11.22C159.926 10.7267 160.06 10.14 160.06 9.46ZM176.074 3.92V15H173.254V13.6C172.894 14.08 172.421 14.46 171.834 14.74C171.261 15.0067 170.634 15.14 169.954 15.14C169.088 15.14 168.321 14.96 167.654 14.6C166.988 14.2267 166.461 13.6867 166.074 12.98C165.701 12.26 165.514 11.4067 165.514 10.42V3.92H168.314V10.02C168.314 10.9 168.534 11.58 168.974 12.06C169.414 12.5267 170.014 12.76 170.774 12.76C171.548 12.76 172.154 12.5267 172.594 12.06C173.034 11.58 173.254 10.9 173.254 10.02V3.92H176.074Z" fill="black"/>
</svg>
